<svg xmlns="http://www.w3.org/2000/svg" viewBox="0 0 50 42"><defs><style>.cls-1{fill:#141414;fill-rule:evenodd;}</style></defs><title>buttom</title><g id="图层_2" data-name="图层 2"><g id="Feature_9" data-name="Feature #9"><g id="Features"><g id="Features_4" data-name="Features 4"><g id="Settings_Icon" data-name="Settings Icon"><path class="cls-1" d="M9,4V0H7V4A8.07,8.07,0,0,0,7,20V42H9V20A8.07,8.07,0,0,0,9,4ZM8,18a6,6,0,1,1,6-6A6,6,0,0,1,8,18Zm42,2a8.06,8.06,0,0,0-7-8V0H41V12a8.07,8.07,0,0,0,0,16V42h2V28A8.06,8.06,0,0,0,50,20Zm-8,6a6,6,0,1,1,6-6A6,6,0,0,1,42,26ZM26,21V0H24V21a8.07,8.07,0,0,0,0,16v5h2V37a8.07,8.07,0,0,0,0-16ZM25,35a6,6,0,1,1,6-6A6,6,0,0,1,25,35Z"/></g></g></g></g></g></svg>