<svg xmlns="http://www.w3.org/2000/svg" viewBox="0 0 30 49"><defs><style>.cls-1{fill:#141414;fill-rule:evenodd;}</style></defs><title>phone</title><g id="图层_2" data-name="图层 2"><g id="Feature_9" data-name="Feature #9"><g id="Features"><g id="Features_1" data-name="Features 1"><g id="Iphone_Icon" data-name="Iphone Icon"><path class="cls-1" d="M15,45a2,2,0,1,0-2-2A2,2,0,0,0,15,45ZM24.88,0H5.12A5.12,5.12,0,0,0,0,5.12V43.88A5.12,5.12,0,0,0,5.12,49H24.88A5.12,5.12,0,0,0,30,43.88V5.12A5.12,5.12,0,0,0,24.88,0ZM28,43.88A3.12,3.12,0,0,1,24.88,47H5.12A3.12,3.12,0,0,1,2,43.88V39H28ZM28,37H2V9H28ZM28,7H2V5.12A3.12,3.12,0,0,1,5.12,2H24.88A3.12,3.12,0,0,1,28,5.12Z"/></g></g></g></g></g></svg>